<mxfile host="app.diagrams.net" modified="2024-07-03T10:50:49.289Z" agent="Mozilla/5.0 (Macintosh; Intel Mac OS X 10_15_7) AppleWebKit/537.36 (KHTML, like Gecko) Chrome/126.0.0.0 Safari/537.36 Edg/126.0.0.0" etag="IBbKRfWs6U2vKm3DuXEg" version="24.4.13" type="github">
  <diagram id="C5RBs43oDa-KdzZeNtuy" name="Page-1">
    <mxGraphModel dx="1146" dy="616" grid="1" gridSize="10" guides="1" tooltips="1" connect="1" arrows="1" fold="1" page="1" pageScale="1" pageWidth="827" pageHeight="1169" math="0" shadow="0">
      <root>
        <mxCell id="WIyWlLk6GJQsqaUBKTNV-0" />
        <mxCell id="WIyWlLk6GJQsqaUBKTNV-1" parent="WIyWlLk6GJQsqaUBKTNV-0" />
        <mxCell id="j1xwne1TtUJr2UDmbcfq-5" style="edgeStyle=orthogonalEdgeStyle;rounded=0;orthogonalLoop=1;jettySize=auto;html=1;exitX=0.5;exitY=1;exitDx=0;exitDy=0;" edge="1" parent="WIyWlLk6GJQsqaUBKTNV-1" source="j1xwne1TtUJr2UDmbcfq-0" target="j1xwne1TtUJr2UDmbcfq-1">
          <mxGeometry relative="1" as="geometry" />
        </mxCell>
        <mxCell id="j1xwne1TtUJr2UDmbcfq-0" value="PaymentRouteCheckHandle&lt;div&gt;支付路由校验处理器&lt;/div&gt;" style="rounded=1;whiteSpace=wrap;html=1;" vertex="1" parent="WIyWlLk6GJQsqaUBKTNV-1">
          <mxGeometry x="260" y="80" width="214" height="70" as="geometry" />
        </mxCell>
        <mxCell id="j1xwne1TtUJr2UDmbcfq-6" style="edgeStyle=orthogonalEdgeStyle;rounded=0;orthogonalLoop=1;jettySize=auto;html=1;exitX=0.5;exitY=1;exitDx=0;exitDy=0;" edge="1" parent="WIyWlLk6GJQsqaUBKTNV-1" source="j1xwne1TtUJr2UDmbcfq-1">
          <mxGeometry relative="1" as="geometry">
            <mxPoint x="367" y="320" as="targetPoint" />
          </mxGeometry>
        </mxCell>
        <mxCell id="j1xwne1TtUJr2UDmbcfq-1" value="PaymentRouteSplitHandle&lt;div&gt;支付路由拆单支付处理器&lt;/div&gt;" style="rounded=1;whiteSpace=wrap;html=1;" vertex="1" parent="WIyWlLk6GJQsqaUBKTNV-1">
          <mxGeometry x="260" y="200" width="214" height="70" as="geometry" />
        </mxCell>
        <mxCell id="j1xwne1TtUJr2UDmbcfq-8" style="edgeStyle=orthogonalEdgeStyle;rounded=0;orthogonalLoop=1;jettySize=auto;html=1;exitX=0.5;exitY=1;exitDx=0;exitDy=0;" edge="1" parent="WIyWlLk6GJQsqaUBKTNV-1" source="j1xwne1TtUJr2UDmbcfq-3" target="j1xwne1TtUJr2UDmbcfq-4">
          <mxGeometry relative="1" as="geometry" />
        </mxCell>
        <mxCell id="j1xwne1TtUJr2UDmbcfq-3" value="PaymentRoutePendingOrderHandle&lt;div&gt;支付路由待支付处理器&lt;/div&gt;" style="rounded=1;whiteSpace=wrap;html=1;" vertex="1" parent="WIyWlLk6GJQsqaUBKTNV-1">
          <mxGeometry x="260" y="320" width="214" height="70" as="geometry" />
        </mxCell>
        <mxCell id="j1xwne1TtUJr2UDmbcfq-4" value="PaymentRouteHandle&lt;div&gt;支付路由处理器&lt;/div&gt;" style="rounded=1;whiteSpace=wrap;html=1;" vertex="1" parent="WIyWlLk6GJQsqaUBKTNV-1">
          <mxGeometry x="260" y="440" width="214" height="70" as="geometry" />
        </mxCell>
        <mxCell id="j1xwne1TtUJr2UDmbcfq-9" value="负责数据的初始校验" style="text;html=1;align=center;verticalAlign=middle;whiteSpace=wrap;rounded=0;" vertex="1" parent="WIyWlLk6GJQsqaUBKTNV-1">
          <mxGeometry x="510" y="50" width="220" height="120" as="geometry" />
        </mxCell>
        <mxCell id="j1xwne1TtUJr2UDmbcfq-10" value="负责拆单支付的路由规则使用已存在的路由规则" style="text;html=1;align=center;verticalAlign=middle;whiteSpace=wrap;rounded=0;" vertex="1" parent="WIyWlLk6GJQsqaUBKTNV-1">
          <mxGeometry x="510" y="175" width="220" height="120" as="geometry" />
        </mxCell>
        <mxCell id="j1xwne1TtUJr2UDmbcfq-12" value="待支付订单再次支付路由处理" style="text;html=1;align=center;verticalAlign=middle;whiteSpace=wrap;rounded=0;" vertex="1" parent="WIyWlLk6GJQsqaUBKTNV-1">
          <mxGeometry x="510" y="295" width="220" height="120" as="geometry" />
        </mxCell>
        <mxCell id="j1xwne1TtUJr2UDmbcfq-13" value="常规支付路由处理" style="text;html=1;align=center;verticalAlign=middle;whiteSpace=wrap;rounded=0;" vertex="1" parent="WIyWlLk6GJQsqaUBKTNV-1">
          <mxGeometry x="520" y="415" width="220" height="120" as="geometry" />
        </mxCell>
      </root>
    </mxGraphModel>
  </diagram>
</mxfile>
